<?xml version="1.0" encoding="UTF-8" standalone="no"?>
<!-- Created with Inkscape (http://www.inkscape.org/) -->

<svg
   width="224.66341mm"
   height="161.84335mm"
   viewBox="0 0 224.66341 161.84335"
   version="1.1"
   id="svg1"
   xml:space="preserve"
   xmlns="http://www.w3.org/2000/svg"
   xmlns:svg="http://www.w3.org/2000/svg"><defs
     id="defs1" /><g
     id="layer1"
     transform="translate(-1276.2012,-2475.3325)"><path
       style="fill:#1a1a1a"
       d="m 1285.7786,2636.7533 c -4.2204,-1.5555 -7.264,-4.5004 -8.7886,-8.5035 -0.6691,-1.7569 -1.1224,-136.7861 -0.476,-141.7953 0.5704,-4.4198 3.3126,-8.2037 7.3385,-10.126 2.066,-0.9865 2.066,-0.9865 77.486,-0.9865 85.5524,0 77.1865,-0.3933 81.1563,3.8149 3.6975,3.9196 3.879,4.8064 3.887,18.9934 0.01,12.9882 0.4533,11.5057 -3.5654,11.8527 -1.0186,0.088 -2.3404,0.2269 -2.9373,0.3087 -1.0852,0.1488 -1.0852,0.1488 -1.23,-11.5896 -0.1688,-13.6892 -0.1197,-13.4322 -2.905,-15.2097 -1.2003,-0.766 -146.6286,-1.0338 -148.445,-0.2734 -1.5297,0.6404 -2.7625,2.2998 -3.0103,4.0518 -0.3729,2.6366 -0.2467,137.6367 0.1297,138.7505 0.3997,1.1829 1.7801,2.5437 2.9724,2.9302 1.0619,0.3443 37.3016,0.6927 75.9927,0.7306 19.5952,0.019 24.8371,0.094 24.9279,0.355 0.8513,2.4506 1.4307,3.6888 2.4075,5.1456 0.6408,0.9556 1.1651,1.7813 1.1651,1.8348 0,0.3161 -105.2413,0.034 -106.1055,-0.2842 z m 116.7631,-2.003 c -5.1791,-0.7564 -6.9498,-3.9037 -6.9519,-12.3567 0,-16.6339 7.199,-28.4062 21.8266,-35.6718 8.0607,-4.0037 11.2027,-4.5489 15.4822,-2.6863 9.8168,4.2724 20.3441,4.2705 31.2168,-0.01 9.1907,-3.6147 26.5675,6.9281 32.7988,19.8997 5.713,11.8927 5.1464,26.6955 -1.1603,30.3128 -1.311,0.752 -88.2957,1.2261 -93.2122,0.508 z m -105.7564,-17.8751 c -0.371,-0.371 -0.4157,-2.6791 -0.4157,-21.4313 v -21.0154 h 20.3636 c 19.8621,0 20.3703,0.013 20.6375,0.5117 0.8322,1.555 0.2975,41.7616 -0.5594,42.0603 -1.4818,0.5166 -39.5031,0.3975 -40.026,-0.1253 z m 33.4509,-21.1478 v -14.1552 h -13.3614 -13.3615 v 14.1552 14.1552 h 13.3615 13.3614 z m -19.8437,0.1323 v -7.4083 h 6.6146 6.6145 v 7.4083 7.4083 h -6.6145 -6.6146 z m 41.5396,14.2875 v -7.1437 h -3.5719 c -3.5719,0 -3.5719,0 -3.5719,-3.7042 0,-3.7042 0,-3.7042 3.5719,-3.7042 h 3.5719 v -7.0114 -7.0115 h -3.7042 -3.7042 v -7.1437 -7.1438 h -13.626 -13.6261 v -3.8365 -3.8364 h 10.0154 c 10.0153,0 10.0153,0 10.1864,-2.0243 0.4318,-5.1077 0.6089,-4.8549 -3.4007,-4.8549 -3.5719,0 -3.5719,0 -3.5719,-3.7041 v -3.7042 h 7.0115 7.0114 v -14.2875 -14.2875 h 3.7042 c 3.7042,0 3.7042,0 3.7042,-3.4396 0,-3.4396 0,-3.4396 -3.7042,-3.4396 h -3.7042 v -7.4083 -7.4083 h 3.7042 c 3.7042,0 3.7042,0 3.7042,3.7041 0,3.7042 0,3.7042 3.5718,3.7042 3.5719,0 3.5719,0 3.5719,-3.7042 0,-3.7041 0,-3.7041 3.7042,-3.7041 3.7041,0 3.7041,0 3.7041,3.7041 0,3.7042 0,3.7042 3.7042,3.7042 h 3.7042 v 7.4083 7.4084 h -3.7042 c -3.7042,0 -3.7042,0 -3.7042,-3.7042 0,-3.7042 0,-3.7042 -3.4395,-3.7042 -3.4396,0 -3.4396,0 -3.4396,3.7425 0,3.7425 0,3.7425 -3.8365,3.5559 l -3.8364,-0.1865 v 10.7316 10.7315 h 3.7041 c 3.7042,0 3.7042,0 3.7042,3.5719 0,3.5719 0,3.5719 3.5719,3.5719 h 3.5718 v 10.8479 10.8479 h -3.5718 c -3.5719,0 -3.5719,0 -3.5719,-3.7042 0,-3.7041 0,-3.7041 -3.7042,-3.7041 -3.7041,0 -3.7041,0 -3.7041,-3.5719 0,-3.5719 0,-3.5719 -3.5719,-3.5719 -5.5989,0 -5.664,6.8198 -0.066,6.9377 l 3.5058,0.074 0.07,7.3422 0.07,7.3422 h 7.2719 7.2718 v 3.5718 c 0,3.5719 0,3.5719 -3.6011,3.5719 -3.6011,0 -3.6011,0 -3.4101,3.2412 0.2287,3.8804 -0.3564,3.3332 3.7887,3.543 3.4871,0.1765 3.4871,0.1765 3.4871,3.8544 0,3.6779 0,3.6779 -3.5718,3.4926 -3.5719,-0.1852 -3.5719,-0.1852 -3.5719,3.4251 v 3.6104 h 7.1437 7.1438 v -7.1438 -7.1437 h 3.5719 c 3.5718,0 3.5718,0 3.5718,-3.4396 0,-3.4396 0,-3.4396 3.5719,-3.4396 3.5719,0 3.5719,0 3.5719,3.5719 0,3.5719 0,3.5719 -3.5719,3.5719 -3.5719,0 -3.5719,0 -3.5719,3.4395 v 3.4396 h 7.1656 c 7.1656,0 7.1656,0 6.3305,1.3891 -0.4593,0.764 -1.3323,2.4285 -1.9401,3.6989 -1.1049,2.3099 -1.1049,2.3099 -2.494,2.3151 -1.3891,0.01 -1.3891,0.01 -1.3891,3.4448 0,3.4396 0,3.4396 -3.7041,3.4396 -3.7042,0 -3.7042,0 -3.7042,-3.4396 0,-3.4395 0,-3.4395 -3.7042,-3.4395 h -3.7041 v 7.1437 7.1438 h -3.5719 c -3.5719,0 -3.5719,0 -3.5719,-3.4396 0,-3.4396 0,-3.4396 -3.5718,-3.4396 -3.5719,0 -3.5719,0 -3.5719,3.4396 0,3.4396 0,3.4396 -3.8365,3.4396 h -3.8364 z m 7.4083,-60.8542 c 0,-3.4395 0,-3.4395 -3.7042,-3.4395 -3.7041,0 -3.7041,0 -3.7041,3.4395 0,3.4396 0,3.4396 3.7041,3.4396 3.7042,0 3.7042,0 3.7042,-3.4396 z m 35.9833,28.7073 v -3.5718 h -10.9802 c -12.1873,0 -11.3785,0.4207 -10.8078,-5.6224 0.1687,-1.786 0.1687,-1.786 3.8346,-1.786 3.6659,0 3.6659,0 3.6659,-3.5793 0,-5.604 7.2319,-5.5316 7.3499,0.074 0.1179,5.5978 6.9376,5.5328 6.9376,-0.066 0,-3.5718 0,-3.5718 3.5719,-3.5718 3.5719,0 3.5719,0 3.5719,-3.5719 0,-3.5719 0,-3.5719 -3.4396,-3.5719 -3.4396,0 -3.4396,0 -3.4396,-3.5719 v -3.5718 h 6.986 c 6.986,0 6.986,0 7.1449,2.8442 0.1808,3.2388 0.5711,6.7563 1.0494,9.4589 0.3278,1.8521 0.3278,1.8521 -3.8544,1.9248 l -4.1821,0.073 v 7.2695 7.2695 h 3.7041 c 3.7042,0 3.7042,0 3.7042,3.5718 v 3.5719 h -7.4083 -7.4084 z m 46.8923,0.6381 c -23.9114,-5.0214 -33.2137,-34.4898 -16.412,-51.9909 16.4897,-17.176 44.8768,-10.682 52.1489,11.9299 7.1092,22.1052 -13.1413,44.806 -35.7369,40.061 z m -138.9673,-18.6297 v -7.2761 h -3.4396 c -3.4395,0 -3.4395,0 -3.4395,-3.8364 0,-3.8365 0,-3.8365 3.4395,-3.8365 3.4396,0 3.4396,0 3.4396,3.8365 0,6.0175 6.8209,6.0825 6.9381,0.066 0.085,-4.3466 -0.4652,-4.1062 8.6062,-3.7632 4.8286,0.1826 4.8286,0.1826 4.8286,3.858 v 3.6755 h -6.4822 -6.4823 v 7.2761 7.276 h -3.7042 -3.7042 z m 70.3792,-10.848 v -3.5718 h 7.2378 c 8.0348,0 7.571,-0.328 7.577,5.3578 0,1.7859 0,1.7859 -7.4065,1.7859 h -7.4083 z m -7.1438,-13.8906 c 0,-3.7041 0,-3.7041 -3.5718,-3.7041 -3.5719,0 -3.5719,0 -3.5719,-3.7042 v -3.7042 h 7.1437 7.1438 v 7.4084 7.4083 h -3.5719 c -3.5719,0 -3.5719,0 -3.5719,-3.7042 z m 15.082,2.6472 c -0.3078,-0.5752 -0.4266,-41.342 -0.1227,-42.1338 0.2808,-0.7318 0.5201,-0.7398 21.9928,-0.7398 25.521,0 22.05,-1.7214 22.05,10.935 0,10.3775 0,10.3775 -2.5797,12.5466 -1.4188,1.193 -3.0857,2.6066 -3.7041,3.1412 -1.1245,0.9721 -1.1245,0.9721 -1.1245,-9.1163 v -10.0884 l -9.8557,-8e-4 c -5.4207,-4e-4 -12.0882,-0.079 -14.8167,-0.1741 l -4.9609,-0.1734 v 14.594 14.5939 h 12.0229 c 12.5864,0 12.5224,-0.01 12.0174,1.2345 -0.1678,0.4124 -0.6298,1.8809 -1.0267,3.2634 -0.7021,2.4459 -28.6565,4.4266 -29.8921,2.118 z m -85.169,-0.5652 c -0.5185,-1.4876 -0.4009,-41.3584 0.1237,-41.8829 0.6375,-0.6376 40.0749,-0.633 40.7127,0 0.4663,0.4663 0.5234,41.8889 0.058,42.3539 -0.7989,0.7989 -40.6119,0.3358 -40.8948,-0.4757 z m 33.8391,-20.8674 v -14.2875 h -13.3614 -13.3615 v 14.2875 14.2875 h 13.3615 13.3614 z m -19.8437,0 v -7.1437 h 6.6146 6.6145 v 7.1437 7.1438 h -6.6145 -6.6146 z m 84.9312,0.5292 v -7.4084 h 8.0698 8.0698 v 7.4084 7.4083 h -8.0698 -8.0698 z"
       id="path1" /></g></svg>
